<svg width="1207" height="130" viewBox="0 0 1207 130" fill="none" xmlns="http://www.w3.org/2000/svg">
<mask id="path-1-outside-1_1035_6931" maskUnits="userSpaceOnUse" x="0" y="0" width="1207" height="130" fill="black">
<rect fill="white" width="1207" height="130"/>
<path d="M112.375 78.1473C111.067 92.8461 105.837 104.442 97.0097 113.098C88.0193 121.59 75.7597 126 60.2308 126C43.2308 126 29.6635 120.284 19.3654 109.178C9.06731 98.0723 4 83.2102 4 64.9183C4 47.4431 9.06731 32.9076 19.5289 21.4752C29.9904 9.87952 43.8846 4.16332 61.2116 4.16332C74.9423 4.16332 86.5481 8.08299 96.0289 15.9224C105.346 23.7617 110.577 33.7242 111.558 45.8099H86.5481C85.2404 39.2771 82.2981 34.3775 77.7212 30.7845C73.1443 27.1914 67.5866 25.5582 60.7212 25.5582C53.5289 25.5582 47.6443 27.5181 42.7404 31.4377C37.8366 35.3574 34.5673 40.257 32.6058 45.9732C30.6442 51.8527 29.6635 58.0589 29.6635 64.9183C29.6635 77.004 32.4423 86.4766 38 93.6626C43.5577 100.849 50.9135 104.278 60.3943 104.278C75.9231 104.278 84.75 95.6225 87.0385 78.1473H112.375ZM182.208 4C199.208 4 212.938 9.7162 223.4 20.9853C233.862 32.2543 239.256 46.9531 239.256 65.0817C239.256 83.3735 233.862 98.0723 223.4 109.178C212.938 120.284 199.044 125.837 182.044 125.837C164.717 125.837 150.823 120.284 140.361 109.178C129.736 98.0723 124.506 83.3735 124.506 65.0817C124.506 46.7898 129.736 31.9277 140.198 20.822C150.66 9.7162 164.717 4 182.208 4ZM181.881 24.905C172.236 24.905 164.554 28.6613 158.833 35.8474C153.111 43.0335 150.169 52.6693 150.169 64.755C150.169 77.1673 153.111 86.9665 158.669 94.1526C164.39 101.175 172.236 104.768 182.208 104.932C191.852 104.932 199.535 101.339 205.092 94.1526C210.65 86.9665 213.429 77.1673 213.429 64.755C213.429 52.506 210.487 42.8701 204.929 35.6841C199.208 28.498 191.525 24.905 181.881 24.905ZM256.799 123.06V6.77644H293.25L320.385 86.6399L346.866 6.77644H382.5V123.06H358.472V40.4203L329.866 123.06H310.087L281.154 41.2369V123.06H256.799ZM430.759 6.77644V123.06H405.095V6.77644H430.759ZM453.304 123.06V6.77644H479.294L527.188 84.6801V6.77644H551.708V123.06H526.208L477.986 44.9933V123.06H453.304ZM678.098 60.1821L677.934 123.06H661.752L659.3 109.831C650.636 120.61 639.031 125.837 624.319 125.837C608.136 125.837 594.896 120.284 584.761 109.015C574.627 97.909 569.559 83.3735 569.559 65.4083C569.559 47.4431 574.954 32.9076 585.579 21.4752C596.367 10.0428 610.098 4.32664 626.771 4.32664C640.175 4.32664 651.29 8.08299 660.444 15.5957C669.598 23.1084 674.992 32.9076 676.463 44.9933H651.781C650.636 38.9505 647.857 34.2142 643.281 30.7845C638.867 27.5181 633.309 25.7216 626.607 25.7216C616.8 25.7216 609.281 29.3146 603.723 36.3373C598.165 43.3601 595.386 52.996 595.386 65.4083C595.386 78.1473 598.165 87.9464 603.723 94.9692C609.281 101.992 617.29 105.422 627.425 105.422C635.271 105.422 641.809 103.135 647.04 98.2356C652.107 93.336 654.886 86.9665 655.213 79.1272H629.223V60.1821H678.098ZM830.135 41.4003L805.779 41.5636C804.799 29.9679 797.443 24.2517 783.712 24.2517C777.827 24.2517 773.25 25.3949 769.981 27.6814C766.712 29.9679 764.914 33.2343 764.914 37.4806C764.914 38.7871 765.241 40.0937 765.568 41.2369C766.058 42.2169 766.875 43.1968 768.02 44.1767C769.327 45.1566 770.472 45.8099 771.616 46.4632C772.924 47.1165 774.722 47.7697 777.01 48.423C779.299 49.0763 781.423 49.7296 783.385 50.3829C785.347 50.8728 787.962 51.5261 791.395 52.506C794.991 53.3226 797.933 54.1392 800.548 54.9558C811.991 58.2222 820.654 62.3052 826.212 67.2048C831.77 72.1044 834.549 79.1272 834.549 88.2731C834.549 94.8059 833.241 100.685 830.462 105.585C827.847 110.485 824.087 114.404 819.51 117.344C814.933 120.284 809.866 122.407 804.308 123.714C798.75 125.02 792.866 125.837 786.654 125.837C770.962 125.837 758.539 122.08 749.712 114.894C740.885 107.708 736.308 97.419 736.145 84.3534H761.481C761.972 98.8889 770.798 106.238 787.798 106.238C794.5 106.238 799.731 104.768 803.654 101.992C807.577 99.2155 809.375 95.4592 809.375 90.7229C809.375 86.6399 807.741 83.7001 804.145 81.9036C800.549 79.9438 793.193 77.494 781.75 74.2276C781.097 74.0643 780.606 73.9009 780.279 73.9009C779.952 73.7376 779.625 73.5743 778.972 73.411C778.481 73.2477 777.991 73.0843 777.5 73.0843C773.577 71.9411 770.962 71.1245 769.327 70.6345C767.856 70.1446 765.404 69.328 762.135 68.1847C758.866 66.8782 756.414 65.8983 754.943 64.9183C753.308 63.9384 751.51 62.4685 749.222 60.8353C746.933 59.0388 745.462 57.2423 744.481 55.2825C743.5 53.3226 742.52 51.0361 741.702 48.2597C740.885 45.4833 740.558 42.5435 740.558 39.2771C740.558 28.6613 744.645 20.1687 752.818 13.7992C760.991 7.59304 771.779 4.32664 785.347 4.32664C798.424 4.32664 809.049 7.42972 817.385 13.6359C825.558 19.842 829.808 28.988 830.135 41.4003ZM902.78 4C919.78 4 933.51 9.7162 943.972 20.9853C954.434 32.2543 959.828 46.9531 959.828 65.0817C959.828 83.3735 954.434 98.0723 943.972 109.178C933.51 120.284 919.616 125.837 902.616 125.837C885.289 125.837 871.395 120.284 860.934 109.178C850.309 98.0723 845.078 83.3735 845.078 65.0817C845.078 46.7898 850.309 31.9277 860.77 20.822C871.232 9.7162 885.289 4 902.78 4ZM902.453 24.905C892.809 24.905 885.126 28.6613 879.405 35.8474C873.684 43.0335 870.741 52.6693 870.741 64.755C870.741 77.1673 873.684 86.9665 879.241 94.1526C884.962 101.175 892.809 104.768 902.78 104.932C912.424 104.932 920.107 101.339 925.664 94.1526C931.222 86.9665 934.001 77.1673 934.001 64.755C934.001 52.506 931.059 42.8701 925.501 35.6841C919.78 28.498 912.097 24.905 902.453 24.905ZM1030.01 4C1047.01 4 1060.74 9.7162 1071.2 20.9853C1081.66 32.2543 1087.05 46.9531 1087.05 65.0817C1087.05 83.3735 1081.66 98.0723 1071.2 109.178C1060.74 120.284 1046.84 125.837 1029.84 125.837C1012.51 125.837 998.621 120.284 988.159 109.178C977.534 98.0723 972.303 83.3735 972.303 65.0817C972.303 46.7898 977.534 31.9277 987.996 20.822C998.457 9.7162 1012.51 4 1030.01 4ZM1029.68 24.905C1020.03 24.905 1012.35 28.6613 1006.63 35.8474C1000.91 43.0335 997.967 52.6693 997.967 64.755C997.967 77.1673 1000.91 86.9665 1006.47 94.1526C1012.19 101.175 1020.03 104.768 1030.01 104.932C1039.65 104.932 1047.33 101.339 1052.89 94.1526C1058.45 86.9665 1061.23 77.1673 1061.23 64.755C1061.23 52.506 1058.28 42.8701 1052.73 35.6841C1047.01 28.498 1039.32 24.905 1029.68 24.905ZM1104.6 123.06V6.77644H1130.59L1178.48 84.6801V6.77644H1203V123.06H1177.5L1129.28 44.9933V123.06H1104.6Z"/>
</mask>
<path d="M112.375 78.1473C111.067 92.8461 105.837 104.442 97.0097 113.098C88.0193 121.59 75.7597 126 60.2308 126C43.2308 126 29.6635 120.284 19.3654 109.178C9.06731 98.0723 4 83.2102 4 64.9183C4 47.4431 9.06731 32.9076 19.5289 21.4752C29.9904 9.87952 43.8846 4.16332 61.2116 4.16332C74.9423 4.16332 86.5481 8.08299 96.0289 15.9224C105.346 23.7617 110.577 33.7242 111.558 45.8099H86.5481C85.2404 39.2771 82.2981 34.3775 77.7212 30.7845C73.1443 27.1914 67.5866 25.5582 60.7212 25.5582C53.5289 25.5582 47.6443 27.5181 42.7404 31.4377C37.8366 35.3574 34.5673 40.257 32.6058 45.9732C30.6442 51.8527 29.6635 58.0589 29.6635 64.9183C29.6635 77.004 32.4423 86.4766 38 93.6626C43.5577 100.849 50.9135 104.278 60.3943 104.278C75.9231 104.278 84.75 95.6225 87.0385 78.1473H112.375ZM182.208 4C199.208 4 212.938 9.7162 223.4 20.9853C233.862 32.2543 239.256 46.9531 239.256 65.0817C239.256 83.3735 233.862 98.0723 223.4 109.178C212.938 120.284 199.044 125.837 182.044 125.837C164.717 125.837 150.823 120.284 140.361 109.178C129.736 98.0723 124.506 83.3735 124.506 65.0817C124.506 46.7898 129.736 31.9277 140.198 20.822C150.66 9.7162 164.717 4 182.208 4ZM181.881 24.905C172.236 24.905 164.554 28.6613 158.833 35.8474C153.111 43.0335 150.169 52.6693 150.169 64.755C150.169 77.1673 153.111 86.9665 158.669 94.1526C164.39 101.175 172.236 104.768 182.208 104.932C191.852 104.932 199.535 101.339 205.092 94.1526C210.65 86.9665 213.429 77.1673 213.429 64.755C213.429 52.506 210.487 42.8701 204.929 35.6841C199.208 28.498 191.525 24.905 181.881 24.905ZM256.799 123.06V6.77644H293.25L320.385 86.6399L346.866 6.77644H382.5V123.06H358.472V40.4203L329.866 123.06H310.087L281.154 41.2369V123.06H256.799ZM430.759 6.77644V123.06H405.095V6.77644H430.759ZM453.304 123.06V6.77644H479.294L527.188 84.6801V6.77644H551.708V123.06H526.208L477.986 44.9933V123.06H453.304ZM678.098 60.1821L677.934 123.06H661.752L659.3 109.831C650.636 120.61 639.031 125.837 624.319 125.837C608.136 125.837 594.896 120.284 584.761 109.015C574.627 97.909 569.559 83.3735 569.559 65.4083C569.559 47.4431 574.954 32.9076 585.579 21.4752C596.367 10.0428 610.098 4.32664 626.771 4.32664C640.175 4.32664 651.29 8.08299 660.444 15.5957C669.598 23.1084 674.992 32.9076 676.463 44.9933H651.781C650.636 38.9505 647.857 34.2142 643.281 30.7845C638.867 27.5181 633.309 25.7216 626.607 25.7216C616.8 25.7216 609.281 29.3146 603.723 36.3373C598.165 43.3601 595.386 52.996 595.386 65.4083C595.386 78.1473 598.165 87.9464 603.723 94.9692C609.281 101.992 617.29 105.422 627.425 105.422C635.271 105.422 641.809 103.135 647.04 98.2356C652.107 93.336 654.886 86.9665 655.213 79.1272H629.223V60.1821H678.098ZM830.135 41.4003L805.779 41.5636C804.799 29.9679 797.443 24.2517 783.712 24.2517C777.827 24.2517 773.25 25.3949 769.981 27.6814C766.712 29.9679 764.914 33.2343 764.914 37.4806C764.914 38.7871 765.241 40.0937 765.568 41.2369C766.058 42.2169 766.875 43.1968 768.02 44.1767C769.327 45.1566 770.472 45.8099 771.616 46.4632C772.924 47.1165 774.722 47.7697 777.01 48.423C779.299 49.0763 781.423 49.7296 783.385 50.3829C785.347 50.8728 787.962 51.5261 791.395 52.506C794.991 53.3226 797.933 54.1392 800.548 54.9558C811.991 58.2222 820.654 62.3052 826.212 67.2048C831.77 72.1044 834.549 79.1272 834.549 88.2731C834.549 94.8059 833.241 100.685 830.462 105.585C827.847 110.485 824.087 114.404 819.51 117.344C814.933 120.284 809.866 122.407 804.308 123.714C798.75 125.02 792.866 125.837 786.654 125.837C770.962 125.837 758.539 122.08 749.712 114.894C740.885 107.708 736.308 97.419 736.145 84.3534H761.481C761.972 98.8889 770.798 106.238 787.798 106.238C794.5 106.238 799.731 104.768 803.654 101.992C807.577 99.2155 809.375 95.4592 809.375 90.7229C809.375 86.6399 807.741 83.7001 804.145 81.9036C800.549 79.9438 793.193 77.494 781.75 74.2276C781.097 74.0643 780.606 73.9009 780.279 73.9009C779.952 73.7376 779.625 73.5743 778.972 73.411C778.481 73.2477 777.991 73.0843 777.5 73.0843C773.577 71.9411 770.962 71.1245 769.327 70.6345C767.856 70.1446 765.404 69.328 762.135 68.1847C758.866 66.8782 756.414 65.8983 754.943 64.9183C753.308 63.9384 751.51 62.4685 749.222 60.8353C746.933 59.0388 745.462 57.2423 744.481 55.2825C743.5 53.3226 742.52 51.0361 741.702 48.2597C740.885 45.4833 740.558 42.5435 740.558 39.2771C740.558 28.6613 744.645 20.1687 752.818 13.7992C760.991 7.59304 771.779 4.32664 785.347 4.32664C798.424 4.32664 809.049 7.42972 817.385 13.6359C825.558 19.842 829.808 28.988 830.135 41.4003ZM902.78 4C919.78 4 933.51 9.7162 943.972 20.9853C954.434 32.2543 959.828 46.9531 959.828 65.0817C959.828 83.3735 954.434 98.0723 943.972 109.178C933.51 120.284 919.616 125.837 902.616 125.837C885.289 125.837 871.395 120.284 860.934 109.178C850.309 98.0723 845.078 83.3735 845.078 65.0817C845.078 46.7898 850.309 31.9277 860.77 20.822C871.232 9.7162 885.289 4 902.78 4ZM902.453 24.905C892.809 24.905 885.126 28.6613 879.405 35.8474C873.684 43.0335 870.741 52.6693 870.741 64.755C870.741 77.1673 873.684 86.9665 879.241 94.1526C884.962 101.175 892.809 104.768 902.78 104.932C912.424 104.932 920.107 101.339 925.664 94.1526C931.222 86.9665 934.001 77.1673 934.001 64.755C934.001 52.506 931.059 42.8701 925.501 35.6841C919.78 28.498 912.097 24.905 902.453 24.905ZM1030.01 4C1047.01 4 1060.74 9.7162 1071.2 20.9853C1081.66 32.2543 1087.05 46.9531 1087.05 65.0817C1087.05 83.3735 1081.66 98.0723 1071.2 109.178C1060.74 120.284 1046.84 125.837 1029.84 125.837C1012.51 125.837 998.621 120.284 988.159 109.178C977.534 98.0723 972.303 83.3735 972.303 65.0817C972.303 46.7898 977.534 31.9277 987.996 20.822C998.457 9.7162 1012.51 4 1030.01 4ZM1029.68 24.905C1020.03 24.905 1012.35 28.6613 1006.63 35.8474C1000.91 43.0335 997.967 52.6693 997.967 64.755C997.967 77.1673 1000.91 86.9665 1006.47 94.1526C1012.19 101.175 1020.03 104.768 1030.01 104.932C1039.65 104.932 1047.33 101.339 1052.89 94.1526C1058.45 86.9665 1061.23 77.1673 1061.23 64.755C1061.23 52.506 1058.28 42.8701 1052.73 35.6841C1047.01 28.498 1039.32 24.905 1029.68 24.905ZM1104.6 123.06V6.77644H1130.59L1178.48 84.6801V6.77644H1203V123.06H1177.5L1129.28 44.9933V123.06H1104.6Z" stroke="#C0C0C0" stroke-opacity="0.5" stroke-width="8" mask="url(#path-1-outside-1_1035_6931)"/>
</svg>
