<svg width="999" height="497" viewBox="0 0 999 497" fill="none" xmlns="http://www.w3.org/2000/svg">
<path d="M72.6907 395.625C239.627 182.965 902.523 422.226 955.884 112.362" stroke="#2596BE" stroke-width="4.04932" stroke-linecap="round" stroke-linejoin="round" stroke-dasharray="12.15 12.15"/>
<path d="M956.172 0C944.837 0.0133732 933.969 4.52245 925.953 12.5381C917.938 20.5538 913.428 31.4215 913.415 42.7573C913.402 52.021 916.427 61.0333 922.029 68.4117C922.029 68.4117 923.195 69.9471 923.385 70.1687L956.172 108.837L988.975 70.1492C989.146 69.9432 990.316 68.4117 990.316 68.4117L990.32 68.4001C995.919 61.0249 998.943 52.0167 998.93 42.7573C998.916 31.4215 994.407 20.5538 986.392 12.5381C978.376 4.52245 967.508 0.0133732 956.172 0ZM956.172 58.3055C953.097 58.3055 950.091 57.3936 947.534 55.6851C944.978 53.9767 942.985 51.5484 941.808 48.7073C940.631 45.8663 940.323 42.7401 940.923 39.724C941.523 36.708 943.004 33.9376 945.178 31.7632C947.353 29.5887 950.123 28.1079 953.139 27.508C956.155 26.908 959.281 27.2159 962.122 28.3927C964.964 29.5695 967.392 31.5624 969.1 34.1193C970.809 36.6761 971.721 39.6822 971.721 42.7573C971.715 46.8794 970.076 50.8311 967.161 53.7458C964.246 56.6606 960.295 58.3003 956.172 58.3055Z" fill="#2596BE"/>
<path d="M42.7574 381.411C31.4216 381.424 20.5538 385.933 12.5382 393.949C4.5225 401.964 0.0134187 412.832 4.54895e-05 424.168C-0.0135315 433.432 3.01242 442.444 8.61372 449.822C8.61372 449.822 9.77983 451.358 9.97029 451.579L42.7574 490.247L75.5601 451.56C75.7311 451.354 76.9012 449.822 76.9012 449.822L76.905 449.811C82.5036 442.436 85.5281 433.427 85.5148 424.168C85.5014 412.832 80.9924 401.964 72.9767 393.949C64.961 385.933 54.0933 381.424 42.7574 381.411ZM42.7574 439.716C39.6823 439.716 36.6762 438.804 34.1194 437.096C31.5625 435.387 29.5696 432.959 28.3928 430.118C27.216 427.277 26.9081 424.151 27.508 421.135C28.108 418.119 29.5888 415.348 31.7632 413.174C33.9377 410.999 36.7081 409.519 39.7241 408.919C42.7402 408.319 45.8664 408.627 48.7074 409.803C51.5485 410.98 53.9768 412.973 55.6852 415.53C57.3937 418.087 58.3056 421.093 58.3056 424.168C58.3004 428.29 56.6607 432.242 53.7459 435.156C50.8312 438.071 46.8795 439.711 42.7574 439.716Z" fill="#2596BE"/>
</svg>
