<svg width="557" height="233" viewBox="0 0 557 233" fill="none" xmlns="http://www.w3.org/2000/svg">
<g clip-path="url(#clip0_1035_6947)">
<path d="M165.709 191.845C163.794 206.106 156.752 219.154 149.241 231.723C148.992 232.15 148.737 232.572 148.475 233H70.4007C68.8216 232.61 67.263 232.182 65.7108 231.723C56.8926 229.171 48.5675 225.278 41.0591 220.195C12.3356 200.524 1.28285 163.354 6.27515 130.049C9.37938 109.356 18.9335 88.2295 37.5382 77.0849C47.3614 71.1902 59.9794 69.2742 71.2875 71.4648C71.5834 71.5159 71.879 71.5797 72.1811 71.6372C81.9101 73.7192 90.5775 78.8923 95.5094 87.2268C104.378 102.203 99.0972 120.756 94.7368 137.425C90.3895 154.094 88.031 174.046 100.649 186.34C96.4835 174.684 100.596 160.781 110.546 152.9C118.065 146.954 128.533 144.725 138.081 146.571C138.994 146.756 139.895 146.967 140.782 147.222C142.925 147.819 144.992 148.641 146.943 149.674C161.825 157.575 167.852 175.77 165.709 191.845Z" fill="#E8E8E8"/>
<path d="M119.416 231.723C121.579 232.202 123.749 232.623 125.933 233H114.128C112.582 232.604 111.043 232.182 109.519 231.723C106.166 230.726 102.864 229.583 99.6147 228.293C86.58 223.094 74.5732 215.29 65.4892 204.905C61.0465 199.874 57.4187 194.241 54.7255 188.192C51.8051 181.355 49.9491 174.149 49.2161 166.803C47.5699 151.731 49.2496 136.244 52.3873 121.44C55.6254 106.096 60.8523 91.1932 67.9485 77.0722C68.8018 75.3798 69.6842 73.698 70.5957 72.0269C70.6584 71.8893 70.7533 71.7671 70.8732 71.6697C70.9931 71.5723 71.1349 71.5023 71.2876 71.4648C71.5978 71.4077 71.9191 71.4697 72.1813 71.6373C72.4959 71.8089 72.7292 72.0888 72.833 72.4192C72.9368 72.7496 72.9032 73.1052 72.739 73.4127C65.4225 86.9751 59.8763 101.336 56.2238 116.177C52.6494 130.655 50.6203 145.804 51.3122 160.691C51.9707 174.601 55.794 188.281 64.4679 199.656C72.3896 210.04 83.3279 218.228 95.4289 223.803C103.088 227.287 111.134 229.943 119.416 231.723Z" fill="white"/>
<path d="M145.324 233H141.844C141.454 232.578 141.077 232.151 140.708 231.723C132.78 222.567 127.41 211.659 125.093 200.007C122.28 185.466 124.468 170.451 131.335 157.185C133.251 153.465 135.508 149.913 138.081 146.571C138.994 146.756 139.895 146.967 140.782 147.222C134.015 155.744 129.463 165.666 127.498 176.179C125.746 186.029 126.328 196.128 129.204 205.737C132.08 215.346 137.176 224.224 144.121 231.723C144.511 232.151 144.914 232.578 145.324 233Z" fill="white"/>
<path d="M458.856 222.139C459.361 225.902 461.22 229.346 463.202 232.663C463.268 232.776 463.335 232.887 463.404 233H484.01C484.426 232.897 484.838 232.784 485.247 232.663C487.575 231.989 489.772 230.962 491.753 229.621C499.334 224.429 502.251 214.619 500.933 205.829C500.114 200.368 497.593 194.792 492.683 191.851C490.016 190.308 486.835 189.778 483.776 190.368C483.697 190.381 483.619 190.398 483.54 190.413C482.266 190.647 481.059 191.135 479.998 191.844C478.937 192.553 478.046 193.468 477.383 194.528C475.042 198.48 476.436 203.377 477.587 207.776C478.734 212.175 479.357 217.441 476.026 220.686C476.514 219.329 476.614 217.873 476.314 216.467C476.014 215.062 475.325 213.758 474.319 212.689C473.313 211.62 472.026 210.825 470.59 210.386C469.154 209.947 467.62 209.879 466.148 210.19C465.907 210.239 465.669 210.294 465.435 210.362C464.869 210.519 464.324 210.736 463.809 211.009C459.881 213.094 458.29 217.896 458.856 222.139Z" fill="#E8E8E8"/>
<path d="M471.074 232.663C470.503 232.789 469.93 232.901 469.354 233H472.469C472.877 232.896 473.283 232.784 473.686 232.663C474.57 232.4 475.442 232.098 476.299 231.758C479.778 230.415 482.867 228.299 485.306 225.585C486.478 224.258 487.436 222.771 488.146 221.174C488.917 219.37 489.407 217.468 489.6 215.53C489.954 211.521 489.672 207.486 488.763 203.557C487.909 199.508 486.529 195.575 484.657 191.848C484.431 191.401 484.198 190.957 483.958 190.516C483.941 190.48 483.916 190.448 483.885 190.422C483.853 190.396 483.816 190.378 483.775 190.368C483.694 190.353 483.609 190.369 483.54 190.414C483.456 190.459 483.395 190.533 483.367 190.62C483.34 190.707 483.349 190.801 483.392 190.882C485.323 194.461 486.787 198.252 487.751 202.168C488.744 206.01 489.18 209.963 489.047 213.917C488.976 217.594 487.769 221.17 485.575 224.2C483.442 226.929 480.636 229.117 477.404 230.573C475.383 231.492 473.259 232.193 471.074 232.663Z" fill="white"/>
<path d="M464.236 233H465.154C465.257 232.889 465.357 232.776 465.454 232.663C467.546 230.246 468.964 227.368 469.575 224.293C470.318 220.455 469.74 216.492 467.928 212.991C467.422 212.009 466.826 211.072 466.147 210.19C465.906 210.239 465.669 210.294 465.435 210.362C467.22 212.611 468.422 215.229 468.94 218.004C469.403 220.604 469.249 223.269 468.49 225.805C467.731 228.341 466.386 230.684 464.553 232.663C464.45 232.776 464.344 232.889 464.236 233Z" fill="white"/>
<path d="M273.131 135.72H208.642L207.959 116.872C207.929 116.055 208.086 115.242 208.419 114.488C208.752 113.734 209.252 113.058 209.887 112.506C210.521 111.954 211.273 111.538 212.092 111.289C212.911 111.04 213.777 110.962 214.631 111.061L252.159 115.429H252.164C257.728 115.444 263.059 117.554 266.989 121.297C270.919 125.04 273.128 130.112 273.131 135.4V135.72Z" fill="#2596BE"/>
<path d="M356.951 80.6568C356.638 79.6987 356.109 78.8174 355.399 78.0748C354.69 77.3323 353.818 76.7466 352.845 76.3591C351.872 75.9715 350.821 75.7915 349.766 75.8317C348.712 75.872 347.68 76.1315 346.742 76.5919L284.863 55.489L282.138 70.1827L343.82 86.3058C344.738 87.7515 346.182 88.8268 347.879 89.328C349.575 89.8291 351.406 89.7213 353.025 89.025C354.643 88.3287 355.937 87.0923 356.661 85.55C357.384 84.0076 357.487 82.2666 356.951 80.6568Z" fill="#FFB8B8"/>
<path opacity="0.2" d="M356.951 80.6568C356.638 79.6987 356.109 78.8174 355.399 78.0748C354.69 77.3323 353.818 76.7466 352.845 76.3591C351.872 75.9715 350.821 75.7915 349.766 75.8317C348.712 75.872 347.68 76.1315 346.742 76.5919L284.863 55.489L282.138 70.1827L343.82 86.3058C344.738 87.7515 346.182 88.8268 347.879 89.328C349.575 89.8291 351.406 89.7213 353.025 89.025C354.643 88.3287 355.937 87.0923 356.661 85.55C357.384 84.0076 357.487 82.2666 356.951 80.6568Z" fill="black"/>
<path d="M295.846 58.1665L290.003 72.677C289.837 73.0898 289.579 73.4637 289.247 73.7733C288.915 74.0829 288.517 74.3208 288.079 74.4708C287.642 74.6209 287.175 74.6796 286.712 74.6429C286.248 74.6062 285.799 74.4749 285.393 74.2581L271.192 66.6605C268.975 65.8398 267.19 64.217 266.23 62.1477C265.27 60.0784 265.212 57.7316 266.069 55.6218C266.926 53.5119 268.628 51.8112 270.802 50.8924C272.977 49.9737 275.445 49.9119 277.667 50.7206L293.526 54.0637C293.98 54.1596 294.407 54.3473 294.777 54.6142C295.148 54.881 295.454 55.2207 295.674 55.61C295.895 55.9994 296.024 56.4293 296.054 56.8704C296.083 57.3116 296.013 57.7537 295.846 58.1665Z" fill="#2596BE"/>
<path d="M361.821 94.0925L339.649 103.672L342.56 114.089C348.181 134.206 349.673 155.163 346.954 175.815L363.165 179.034L376.603 146.462L371.9 109.42L361.821 94.0925Z" fill="#2596BE"/>
<path d="M405.327 142.311C390.759 142.311 378.887 152.378 378.311 164.983H432.343C431.767 152.377 419.895 142.311 405.327 142.311Z" fill="#3F3D56"/>
<path d="M393.986 144.483C393.228 87.5802 359.134 92.8151 359.134 92.8151C359.134 92.8151 359.772 110.527 360.078 111.078C381.804 150.151 345.948 195.958 300.307 187.531C299.446 187.372 298.619 187.211 297.826 187.047C292.043 185.899 286.937 182.701 283.547 178.102C280.157 173.503 278.736 167.85 279.576 162.291C284.072 127.973 261.709 128.58 261.709 128.58H229.011L212.03 114.053C211.43 113.54 210.708 113.175 209.926 112.989C209.143 112.803 208.325 112.802 207.542 112.986C206.759 113.17 206.036 113.533 205.435 114.045C204.834 114.556 204.374 115.199 204.096 115.919L201.911 121.555C201.911 121.555 169.66 124.748 172.348 154.765H182.318C182.294 155.618 182.33 156.471 182.426 157.319L256.839 156.744C261.201 156.711 265.051 160.07 265.069 164.216C265.073 165.226 264.864 166.226 264.452 167.156C264.041 168.087 263.436 168.929 262.674 169.632C261.912 170.336 261.009 170.886 260.019 171.249C259.028 171.613 257.97 171.784 256.909 171.75L244.912 171.37C241.217 187.017 250.287 197.555 260.282 204.181C269.692 210.329 280.857 213.589 292.276 213.521H324.868C367.197 213.521 374.588 179.672 374.588 179.672C396.76 170.731 393.986 144.483 393.986 144.483Z" fill="#0F3C4D"/>
<path d="M403.311 232.042C424.184 232.042 441.105 215.958 441.105 196.118C441.105 176.277 424.184 160.193 403.311 160.193C382.438 160.193 365.517 176.277 365.517 196.118C365.517 215.958 382.438 232.042 403.311 232.042Z" fill="#0F3C4D"/>
<path d="M403.311 204.923C408.427 204.923 412.574 200.981 412.574 196.118C412.574 191.255 408.427 187.313 403.311 187.313C398.195 187.313 394.048 191.255 394.048 196.118C394.048 200.981 398.195 204.923 403.311 204.923Z" fill="white"/>
<path d="M212.493 232.042C236.52 232.042 255.998 213.528 255.998 190.689C255.998 167.851 236.52 149.336 212.493 149.336C188.466 149.336 168.988 167.851 168.988 190.689C168.988 213.528 188.466 232.042 212.493 232.042Z" fill="#0F3C4D"/>
<path d="M212.493 200.825C218.382 200.825 223.156 196.287 223.156 190.689C223.156 185.091 218.382 180.553 212.493 180.553C206.604 180.553 201.83 185.091 201.83 190.689C201.83 196.287 206.604 200.825 212.493 200.825Z" fill="white"/>
<path d="M339.712 106.503L331.734 85.9065C331.318 84.8331 331.129 83.6923 331.177 82.5493C331.225 81.4064 331.51 80.2836 332.014 79.2452C332.519 78.2067 333.234 77.2729 334.118 76.497C335.002 75.7211 336.038 75.1183 337.168 74.7232L360.039 66.72C362.026 66.0245 364.138 65.7078 366.253 65.7881C368.369 65.8683 370.448 66.3438 372.37 67.1876C374.292 68.0313 376.021 69.2267 377.458 70.7055C378.894 72.1843 380.01 73.9175 380.741 75.8062C381.401 77.5014 381.738 79.2948 381.736 81.1022C381.728 83.3973 381.181 85.6617 380.137 87.7309C379.092 89.8001 377.576 91.622 375.698 93.0643C374.341 94.0988 372.816 94.9162 371.182 95.4842L339.712 106.503Z" fill="#0F3C4D"/>
<path d="M381.4 81.1021C381.399 83.3504 380.866 85.5697 379.843 87.5967C378.82 89.6237 377.332 91.4069 375.488 92.815C372.659 92.1057 370.026 90.8193 367.773 89.0452C365.52 87.271 363.7 85.0518 362.44 82.5417C361.181 80.0316 360.511 77.2908 360.479 74.5099C360.446 71.729 361.051 68.9748 362.251 66.4385C364.556 65.9622 366.944 65.9825 369.239 66.4979C371.534 67.0134 373.679 68.0109 375.515 69.4173C377.352 70.8237 378.834 72.6032 379.852 74.6252C380.871 76.6472 381.4 78.8603 381.4 81.1021Z" fill="#2596BE"/>
<path d="M178.058 158.916C183.253 158.916 187.465 154.055 187.465 148.059C187.465 142.063 183.253 137.202 178.058 137.202C172.863 137.202 168.652 142.063 168.652 148.059C168.652 154.055 172.863 158.916 178.058 158.916Z" fill="#2596BE"/>
<path d="M302.4 186.49H310.637L314.556 166.183L302.398 166.184L302.4 186.49Z" fill="#FFB8B8"/>
<path d="M300.299 183.934L316.521 183.934H316.522C317.879 183.934 319.224 184.188 320.478 184.682C321.732 185.175 322.872 185.899 323.832 186.812C324.792 187.724 325.553 188.807 326.073 190C326.592 191.192 326.86 192.47 326.86 193.76V194.079L300.299 194.08L300.299 183.934Z" fill="#2F2E41"/>
<path d="M311.961 178.156C311.865 178.156 311.769 178.151 311.672 178.143L300.272 177.354C299.811 177.313 299.366 177.172 298.971 176.942C298.577 176.712 298.243 176.399 297.996 176.027C297.748 175.655 297.594 175.234 297.545 174.796C297.496 174.359 297.554 173.916 297.713 173.503L312.969 140.922C313.078 140.632 313.123 140.323 313.1 140.015C313.077 139.708 312.988 139.408 312.837 139.135C312.687 138.858 312.477 138.615 312.221 138.422C311.965 138.228 311.669 138.088 311.352 138.011C304.178 136.228 285.771 131.482 269.838 125.929C263.011 123.549 258.712 120.111 257.059 115.709C254.88 109.906 258.104 104.613 258.242 104.391L258.35 104.217L273.343 105.512L289.597 106.827L325.217 124.982C328.201 126.516 330.468 129.063 331.566 132.114C332.664 135.166 332.513 138.499 331.142 141.449L314.72 176.452C314.482 176.959 314.095 177.39 313.606 177.692C313.116 177.995 312.545 178.156 311.961 178.156Z" fill="#2F2E41"/>
<path d="M275.95 41.0535C285.064 41.0535 292.453 34.0306 292.453 25.3674C292.453 16.7043 285.064 9.6814 275.95 9.6814C266.836 9.6814 259.448 16.7043 259.448 25.3674C259.448 34.0306 266.836 41.0535 275.95 41.0535Z" fill="#FFB8B8"/>
<path d="M297.697 188.406H305.934L309.853 168.099L297.695 168.1L297.697 188.406Z" fill="#FFB8B8"/>
<path d="M295.595 185.85L311.817 185.85H311.818C313.176 185.85 314.52 186.104 315.774 186.598C317.028 187.091 318.168 187.815 319.128 188.728C320.088 189.64 320.85 190.723 321.369 191.916C321.889 193.108 322.156 194.386 322.156 195.676V195.995L295.596 195.996L295.595 185.85Z" fill="#2F2E41"/>
<path d="M307.258 180.072C307.162 180.072 307.066 180.067 306.969 180.059L295.569 179.27C295.108 179.229 294.663 179.088 294.268 178.858C293.874 178.628 293.54 178.315 293.292 177.943C293.045 177.571 292.891 177.15 292.842 176.712C292.793 176.275 292.85 175.832 293.01 175.419L308.266 142.838C308.375 142.548 308.42 142.239 308.397 141.931C308.374 141.624 308.285 141.324 308.134 141.051C307.984 140.774 307.774 140.531 307.518 140.338C307.262 140.144 306.966 140.004 306.649 139.927C299.475 138.144 281.068 133.398 265.135 127.845C258.308 125.465 254.009 122.027 252.356 117.625C250.177 111.822 253.401 106.529 253.539 106.307L253.647 106.133L268.64 107.428L284.894 108.743L320.513 126.898C323.498 128.432 325.765 130.979 326.863 134.031C327.961 137.082 327.81 140.415 326.438 143.365L310.017 178.368C309.779 178.875 309.392 179.306 308.903 179.608C308.413 179.911 307.842 180.072 307.258 180.072Z" fill="#2F2E41"/>
<path d="M281.04 49.9481L263.571 44.2002C263.571 44.2002 252.604 52.2089 257.872 72.0766C260.623 82.329 259.821 93.1512 255.588 102.937C255.078 104.147 254.49 105.327 253.828 106.469C253.828 106.469 273.313 128.822 291.454 112.217L284.399 79.9649C284.399 79.9649 295.486 58.5699 281.04 49.9481Z" fill="#2596BE"/>
<path d="M277.999 41.587C275.651 38.2454 273.797 33.6118 276.383 30.4323C278.935 27.2939 283.97 27.7563 287.879 26.3675C293.324 24.4332 296.482 18.3528 295.497 12.9074C294.513 7.46204 289.914 2.94797 284.435 1.10096C278.957 -0.746046 272.779 -0.145356 267.414 1.98159C260.81 4.59988 255.145 9.6648 252.769 16.0807C250.393 22.4966 251.663 30.2001 256.592 35.1316C261.875 40.4186 270.168 41.8276 277.839 41.7421" fill="#2F2E41"/>
<path d="M262.649 13.0821C259.689 15.3722 255.174 14.355 251.997 12.3451C248.82 10.3353 246.242 7.47332 242.805 5.89749C236.745 3.11937 229.418 4.96619 223.52 8.04344C217.622 11.1207 212.394 15.372 206.164 17.7869C199.934 20.2017 191.985 20.3211 187.267 15.7613C186.107 18.9583 186.012 22.4179 186.996 25.6681C187.98 28.9182 189.995 31.8006 192.766 33.922C195.537 36.0435 198.929 37.3005 202.48 37.5218C206.03 37.743 209.566 36.9176 212.605 35.1582C219.431 31.2059 223.201 22.9192 230.857 20.7378C235.094 19.5307 239.643 20.5029 243.925 21.5559C248.207 22.609 252.672 23.7468 256.993 22.8503C261.314 21.9539 265.356 18.2628 264.806 14.0913L262.649 13.0821Z" fill="#2F2E41"/>
<path d="M356.13 80.0178C355.695 79.1036 355.056 78.2911 354.255 77.6374C353.455 76.9837 352.513 76.5048 351.497 76.2344C350.481 75.9639 349.415 75.9085 348.374 76.0721C347.333 76.2357 346.342 76.6143 345.472 77.1811L281.326 63.4966L280.529 78.3976L343.833 87.1635C344.931 88.4905 346.504 89.3882 348.253 89.6866C350.001 89.9849 351.804 89.6633 353.32 88.7824C354.836 87.9016 355.959 86.5229 356.477 84.9075C356.995 83.2922 356.871 81.5523 356.13 80.0178Z" fill="#FFB8B8"/>
<path d="M292.573 64.8656L288.658 79.9504C288.546 80.3796 288.339 80.781 288.049 81.1271C287.76 81.4733 287.396 81.7561 286.981 81.9563C286.566 82.1565 286.111 82.2694 285.647 82.2873C285.182 82.3053 284.719 82.2278 284.288 82.0601L269.209 76.1861C266.901 75.6331 264.918 74.2322 263.695 72.2909C262.472 70.3495 262.109 68.0263 262.686 65.8311C263.263 63.6358 264.733 61.7477 266.772 60.5811C268.812 59.4145 271.255 59.0648 273.566 59.6085L289.737 61.0663C290.2 61.1082 290.648 61.2444 291.051 61.4657C291.453 61.687 291.801 61.9882 292.07 62.3487C292.339 62.7093 292.523 63.1208 292.61 63.5551C292.697 63.9894 292.684 64.4364 292.573 64.8656V64.8656Z" fill="#2596BE"/>
<path d="M348.719 91.8572C351.317 91.8572 353.423 89.8556 353.423 87.3866C353.423 84.9176 351.317 82.916 348.719 82.916C346.122 82.916 344.016 84.9176 344.016 87.3866C344.016 89.8556 346.122 91.8572 348.719 91.8572Z" fill="#2F80ED"/>
<path d="M557 232.361C556.999 232.531 556.929 232.693 556.803 232.812C556.677 232.932 556.506 232.999 556.328 233H0.671894C0.493697 233 0.322797 232.933 0.196793 232.813C0.0707881 232.693 0 232.531 0 232.361C0 232.192 0.0707881 232.029 0.196793 231.91C0.322797 231.79 0.493697 231.723 0.671894 231.723H556.328C556.506 231.723 556.677 231.791 556.803 231.91C556.929 232.03 556.999 232.192 557 232.361Z" fill="#3F3D56"/>
</g>
<defs>
<clipPath id="clip0_1035_6947">
<rect width="557" height="233" fill="white"/>
</clipPath>
</defs>
</svg>
